<?xml version="1.0" standalone="no"?>
<!DOCTYPE svg PUBLIC "-//W3C//DTD SVG 20010904//EN"
 "http://www.w3.org/TR/2001/REC-SVG-20010904/DTD/svg10.dtd">
<svg version="1.0" xmlns="http://www.w3.org/2000/svg"
 width="1024.000000pt" height="1024.000000pt" viewBox="0 0 1024.000000 1024.000000"
 preserveAspectRatio="xMidYMid meet">

<g transform="translate(0.000000,1024.000000) scale(0.100000,-0.100000)"
fill="#000000" stroke="none">
<path d="M5110 7175 c-110 -24 -237 -95 -329 -181 -180 -169 -261 -363 -248
-594 18 -321 260 -612 570 -686 l27 -6 -2 -546 -3 -546 -110 -28 c-143 -36
-375 -83 -495 -100 -146 -20 -578 -17 -705 6 -199 36 -360 84 -512 153 -10 4
-13 -45 -13 -227 l0 -231 63 -29 c252 -114 569 -168 927 -157 325 10 582 58
1134 211 238 67 476 119 646 142 168 23 513 23 662 1 214 -33 471 -103 580
-158 21 -11 42 -19 48 -19 6 0 10 75 10 221 l0 220 -102 49 c-181 86 -429 145
-723 171 -270 24 -627 -17 -982 -111 -62 -17 -117 -30 -122 -30 -7 0 -11 50
-11 145 l0 145 184 0 183 0 7 74 c4 41 4 110 0 155 l-7 81 -178 0 -179 0 0 55
0 55 180 0 180 0 0 90 0 90 -179 0 -180 0 -7 45 c-9 61 -3 70 52 84 59 15 177
69 230 105 112 75 228 226 285 368 33 82 34 86 34 238 0 143 -2 161 -28 235
-83 244 -260 418 -502 495 -91 29 -289 37 -385 15z m297 -361 c53 -14 129 -65
171 -112 77 -87 110 -236 78 -346 -99 -340 -569 -378 -727 -59 -21 41 -24 63
-24 153 0 96 3 110 29 165 88 180 268 255 473 199z"/>
<path d="M6305 4093 c-276 -13 -493 -54 -1000 -188 -482 -127 -736 -171 -1055
-181 -288 -10 -554 27 -800 110 -69 24 -133 46 -142 50 -17 8 -18 -6 -18 -213
l0 -221 39 -20 c131 -66 338 -125 550 -157 86 -13 178 -17 351 -17 349 1 592
41 1100 179 526 143 772 185 1074 185 196 0 330 -11 490 -41 135 -25 315 -79
397 -119 35 -16 64 -28 67 -26 2 3 0 106 -4 231 l-7 226 -46 23 c-110 56 -337
123 -511 150 -97 16 -355 37 -400 34 -14 -1 -52 -3 -85 -5z"/>
</g>
</svg>
